<?xml version="1.0" encoding="UTF-8" standalone="no"?>
<svg
   width="25"
   height="25"
   viewBox="0 0 25 25"
   version="1.1"
   id="svg4"
   sodipodi:docname="github.svg"
   inkscape:version="1.1.1 (3bf5ae0d25, 2021-09-20)"
   xmlns:inkscape="http://www.inkscape.org/namespaces/inkscape"
   xmlns:sodipodi="http://sodipodi.sourceforge.net/DTD/sodipodi-0.dtd"
   xmlns="http://www.w3.org/2000/svg"
   xmlns:svg="http://www.w3.org/2000/svg">
  <defs
     id="defs8" />
  <sodipodi:namedview
     id="namedview6"
     pagecolor="#ffffff"
     bordercolor="#666666"
     borderopacity="1.0"
     inkscape:pageshadow="2"
     inkscape:pageopacity="0.0"
     inkscape:pagecheckerboard="0"
     showgrid="false"
     inkscape:zoom="17.458333"
     inkscape:cx="13.431981"
     inkscape:cy="11.97136"
     inkscape:window-width="1920"
     inkscape:window-height="992"
     inkscape:window-x="-8"
     inkscape:window-y="-8"
     inkscape:window-maximized="1"
     inkscape:current-layer="layer1" />
  <g
     inkscape:groupmode="layer"
     id="layer1"
     inkscape:label="Layer 1"
     style="display:inline">
    <rect
       style="display:inline;fill:#000000;stroke:#000000;stroke-width:7.80066"
       id="rect1616"
       width="17.199343"
       height="17.199343"
       x="3.9003301"
       y="3.9003301" />
    <path
       d="m 12.499999,0.50606967 c -6.6226476,0 -11.99392933,5.50704133 -11.99392933,12.29936633 0,5.43427 3.43626083,10.044482 8.20284793,11.671074 0.5986976,0.113769 0.7925992,-0.267511 0.7925992,-0.591395 V 21.595384 C 6.1652056,22.339495 5.4705566,20.144058 5.4705566,20.144058 4.9248328,18.722456 4.1382316,18.344251 4.1382316,18.344251 c -1.088449,-0.763586 0.08296,-0.747188 0.08296,-0.747188 1.2043901,0.0861 1.8380697,1.267861 1.8380697,1.267861 1.0694583,1.879752 2.8055797,1.336531 3.4902334,1.021872 0.1069456,-0.794333 0.417788,-1.337555 0.7616143,-1.644015 -2.6636519,-0.312609 -5.4642343,-1.36728 -5.4642343,-6.078962 0,-1.343706 0.468763,-2.4403988 1.2353746,-3.3013549 -0.1239379,-0.3105589 -0.53473,-1.5620194 0.1169404,-3.2552323 0,0 1.0074901,-0.3300329 3.2993304,1.2606851 C 10.455036,6.595281 11.480517,6.458963 12.500001,6.4538382 c 1.019484,0.00512 2.045965,0.1414428 3.004479,0.4140787 2.28984,-1.590718 3.295332,-1.2606851 3.295332,-1.2606851 0.65267,1.6942378 0.241878,2.9456983 0.117941,3.2552323 0.76961,0.8609561 1.234375,1.9586729 1.234375,3.3013549 0,4.723982 -2.80558,5.764303 -5.476228,6.068713 0.429782,0.38128 0.822584,1.129491 0.822584,2.277432 v 3.375151 c 0,0.326959 0.191902,0.711313 0.800594,0.59037 4.76259,-1.628642 8.194852,-6.237829 8.194852,-11.670049 0,-6.792325 -5.370281,-12.29936633 -11.993929,-12.29936633 z"
       id="path2"
       style="display:inline;fill:#ffffff;stroke:#000000;stroke-width:1.01214" />
  </g>
</svg>
