<?xml version="1.0" encoding="UTF-8" standalone="no"?>
<!-- Created with Inkscape (http://www.inkscape.org/) -->

<svg
   width="25"
   height="25"
   viewBox="0 0 6.6145833 6.6145833"
   version="1.1"
   id="svg5"
   inkscape:version="1.1.1 (3bf5ae0d25, 2021-09-20)"
   sodipodi:docname="github.svg"
   xmlns:inkscape="http://www.inkscape.org/namespaces/inkscape"
   xmlns:sodipodi="http://sodipodi.sourceforge.net/DTD/sodipodi-0.dtd"
   xmlns="http://www.w3.org/2000/svg"
   xmlns:svg="http://www.w3.org/2000/svg">
  <sodipodi:namedview
     id="namedview7"
     pagecolor="#ffffff"
     bordercolor="#666666"
     borderopacity="1.0"
     inkscape:pageshadow="2"
     inkscape:pageopacity="0.0"
     inkscape:pagecheckerboard="0"
     inkscape:document-units="mm"
     showgrid="false"
     units="px"
     width="25px"
     inkscape:zoom="33.784308"
     inkscape:cx="3.9515387"
     inkscape:cy="18.588512"
     inkscape:window-width="1920"
     inkscape:window-height="992"
     inkscape:window-x="-8"
     inkscape:window-y="-8"
     inkscape:window-maximized="1"
     inkscape:current-layer="layer1" />
  <defs
     id="defs2" />
  <g
     inkscape:label="Layer 1"
     inkscape:groupmode="layer"
     id="layer1">
    <g
       style="fill:#ffffff"
       id="g833"
       transform="matrix(0.27379069,0,0,0.27379069,0.02607993,0.04823102)">
      <path
         d="m 12,0 a 12,12 0 1 0 0,24 12,12 0 0 0 0,-24 z m 3.163,21.783 H 15.07 a 0.513,0.513 0 0 1 -0.382,-0.14 0.513,0.513 0 0 1 -0.14,-0.372 v -1.406 c 0.006,-0.467 0.01,-0.94 0.01,-1.416 a 3.693,3.693 0 0 0 -0.151,-1.028 1.832,1.832 0 0 0 -0.542,-0.875 8.014,8.014 0 0 0 2.038,-0.471 4.051,4.051 0 0 0 1.466,-0.964 c 0.407,-0.427 0.71,-0.943 0.885,-1.506 a 6.77,6.77 0 0 0 0.3,-2.13 4.138,4.138 0 0 0 -0.26,-1.476 3.892,3.892 0 0 0 -0.795,-1.284 2.81,2.81 0 0 0 0.162,-0.582 c 0.033,-0.2 0.05,-0.402 0.05,-0.604 0,-0.26 -0.03,-0.52 -0.09,-0.773 A 5.309,5.309 0 0 0 17.4,5.993 0.293,0.293 0 0 0 17.289,5.973 h -0.11 c -0.23,0.002 -0.456,0.04 -0.674,0.111 a 5.34,5.34 0 0 0 -0.703,0.26 6.503,6.503 0 0 0 -0.661,0.343 c -0.215,0.127 -0.405,0.249 -0.573,0.362 a 9.578,9.578 0 0 0 -5.143,0 A 13.507,13.507 0 0 0 8.853,6.687 6.022,6.022 0 0 0 8.181,6.345 4.516,4.516 0 0 0 7.476,6.084 2.203,2.203 0 0 0 6.814,5.973 h -0.11 a 0.29,0.29 0 0 0 -0.11,0.02 5.844,5.844 0 0 0 -0.23,0.763 C 6.31,7.01 6.284,7.269 6.283,7.529 6.283,7.731 6.3,7.933 6.334,8.133 6.367,8.332 6.42,8.527 6.494,8.715 A 3.888,3.888 0 0 0 5.702,10 a 4.142,4.142 0 0 0 -0.263,1.476 6.871,6.871 0 0 0 0.292,2.12 c 0.181,0.563 0.483,1.08 0.884,1.516 0.415,0.422 0.915,0.75 1.466,0.964 0.653,0.25 1.337,0.41 2.033,0.476 a 1.828,1.828 0 0 0 -0.452,0.633 2.99,2.99 0 0 0 -0.2,0.744 2.754,2.754 0 0 1 -1.175,0.27 1.788,1.788 0 0 1 -1.065,-0.3 A 2.904,2.904 0 0 1 6.47,17.075 3.1,3.1 0 0 0 6.178,16.693 2.693,2.693 0 0 0 5.806,16.35 1.841,1.841 0 0 0 5.374,16.11 1.2,1.2 0 0 0 4.893,16.009 c -0.04,0.001 -0.08,0.005 -0.12,0.01 a 0.649,0.649 0 0 0 -0.162,0.02 0.408,0.408 0 0 0 -0.13,0.06 0.116,0.116 0 0 0 -0.06,0.1 0.33,0.33 0 0 0 0.14,0.242 c 0.093,0.074 0.17,0.131 0.232,0.171 l 0.03,0.021 c 0.133,0.103 0.261,0.214 0.382,0.333 0.112,0.098 0.213,0.209 0.3,0.33 0.09,0.119 0.168,0.246 0.231,0.381 0.073,0.134 0.15,0.288 0.231,0.463 0.188,0.474 0.522,0.875 0.954,1.145 0.453,0.243 0.961,0.364 1.476,0.351 0.174,0 0.349,-0.01 0.522,-0.03 0.172,-0.028 0.343,-0.057 0.515,-0.091 v 1.743 A 0.5,0.5 0 0 1 8.901,21.779 H 8.839 a 10.286,10.286 0 1 1 6.324,0 v 0.005 z"
         id="path824"
         style="fill:#ffffff" />
    </g>
    <g
       inkscape:label="Layer 1"
       id="layer1-5"
       transform="matrix(0.1059322,0,0,0.11160714,2.273552e-5,0)">
      <path
         style="fill:#378bba;fill-opacity:1;stroke:none;stroke-width:0.264583px;stroke-linecap:butt;stroke-linejoin:miter;stroke-opacity:1"
         d="M 29.633333,59.266667 0,29.633333 29.633333,0 V 14.816667 L 14.816667,29.633333 29.633333,44.45 Z"
         id="path4912"
         sodipodi:nodetypes="ccccccc" />
      <path
         style="fill:#378bba;fill-opacity:1;stroke:none;stroke-width:0.264583px;stroke-linecap:butt;stroke-linejoin:miter;stroke-opacity:1"
         d="M 29.633333,40.216667 19.05,29.633333 29.633333,19.05 Z"
         id="path9393"
         sodipodi:nodetypes="cccc" />
      <path
         style="fill:#30b9db;fill-opacity:1;stroke:none;stroke-width:0.264583px;stroke-linecap:butt;stroke-linejoin:miter;stroke-opacity:1"
         d="M 31.75,0 V 14.816667 L 46.566667,29.633333 31.75,44.45 V 59.266667 L 62.441667,29.633333 Z"
         id="path13640"
         sodipodi:nodetypes="ccccccc" />
    </g>
    <text
       xml:space="preserve"
       style="font-style:normal;font-variant:normal;font-weight:900;font-stretch:normal;font-size:0.626629px;line-height:1.25;font-family:'Segoe UI';-inkscape-font-specification:'Segoe UI, Heavy';font-variant-ligatures:normal;font-variant-caps:normal;font-variant-numeric:normal;font-variant-east-asian:normal;fill:#000000;fill-opacity:1;stroke:none;stroke-width:0.0156657"
       x="2.5427918"
       y="5.4593339"
       id="text1266"><tspan
         sodipodi:role="line"
         id="tspan1264"
         style="font-style:normal;font-variant:normal;font-weight:900;font-stretch:normal;font-size:0.626629px;font-family:'Segoe UI';-inkscape-font-specification:'Segoe UI, Heavy';font-variant-ligatures:normal;font-variant-caps:normal;font-variant-numeric:normal;font-variant-east-asian:normal;stroke-width:0.0156657"
         x="2.5427918"
         y="5.4593339">SYNCFUSION</tspan></text>
    <rect
       style="fill:#ffffff;stroke:#000000;stroke-width:0.350311"
       id="rect6930"
       width="0.031092729"
       height="0.018289842"
       x="0.50916725"
       y="4.6427927" />
    <rect
       style="fill:#ffffff;stroke:#000000;stroke-width:0.350311"
       id="rect7021"
       width="0.031092729"
       height="0.018289842"
       x="0.50916725"
       y="5.0970225" />
  </g>
</svg>
